<svg data-name="Layer 1" version="1.1" viewBox="0 0 380 380" xmlns="http://www.w3.org/2000/svg"><defs><style>.cls-1 {
        fill: #fca326;
      }

      .cls-2 {
        fill: #fc6d26;
      }

      .cls-3 {
        fill: #e24329;
      }</style></defs><g stroke-width="2.2186"><path class="cls-3" d="m356.98 155.33-0.47346-1.2385-47.033-122.71c-0.93982-2.4041-2.63-4.4294-4.83-5.8281-2.1928-1.406-4.7645-2.069-7.3727-1.9305-2.5934 0.13842-5.085 1.0855-7.1176 2.7028-2.018 1.6319-3.475 3.8393-4.1598 6.3308l-31.756 97.192h-128.48l-31.756-97.192c-0.68476-2.4915-2.1418-4.6989-4.1598-6.3308-2.0326-1.6173-4.5241-2.5644-7.1176-2.7028-2.608-0.13842-5.1798 0.52451-7.3725 1.9305-2.2001 1.3988-3.8904 3.424-4.8302 5.8281l-47.033 122.72-0.47364 1.2312c-13.937 36.353-2.0618 77.449 28.973 100.92 0.05815 0.0364 0.1092 0.0801 0.16755 0.1238l0.41531 0.31325 71.642 53.633 35.435 26.824 21.564 16.304c5.1942 3.934 12.377 3.934 17.572 0l21.564-16.304 35.428-26.824 72.065-53.947c0.0657-0.051 0.12402-0.0947 0.18947-0.14577 31.013-23.473 42.881-64.554 28.951-100.9z"/><path class="cls-2" d="m356.98 155.33-0.47346-1.2385c-23.334 4.7937-44.826 14.665-63.228 28.434-0.29863 0.21853-55.921 42.283-103.28 78.09 35.166 26.591 65.778 49.707 65.778 49.707l72.065-53.947c0.0657-0.051 0.12402-0.0947 0.18947-0.14576 31.013-23.473 42.881-64.554 28.951-100.9z"/><path class="cls-1" d="m124.22 310.32 35.435 26.824 21.564 16.304c5.1942 3.934 12.377 3.934 17.572 0l21.564-16.304 35.428-26.824s-30.612-23.116-65.778-49.707c-35.173 26.591-65.785 49.707-65.785 49.707z"/><path class="cls-2" d="m86.712 182.52c-18.395-13.762-39.879-23.64-63.221-28.427l-0.47364 1.2312c-13.937 36.353-2.0618 77.449 28.973 100.92 0.05815 0.0364 0.1092 0.0801 0.16755 0.1238l0.41531 0.31325 71.642 53.633s30.612-23.116 65.785-49.707c-47.361-35.807-102.99-77.871-103.29-78.09z"/></g></svg>
